<?xml version="1.0" encoding="UTF-8"?>
<svg id="Layer_1" data-name="Layer 1" xmlns="http://www.w3.org/2000/svg" viewBox="0 0 256 256">
  <defs>
    <style>
      .cls-1 {
        fill: #c8e5ca;
      }

      .cls-2 {
        fill: #4daf4f;
      }
    </style>
  </defs>
  <path class="cls-2" d="M232.66,153.23c-2.3,2.21-5.96,2.13-8.17-.18-2.15-2.25-2.14-5.79.03-8.02,19.95-20.15,19.95-52.6,0-72.75-2.26-2.25-2.28-5.91-.03-8.17s5.91-2.28,8.17-.03c24.46,24.68,24.46,64.47,0,89.15ZM152.75,205.88c3.19,0,5.77,2.58,5.77,5.77,0,3.19-2.59,5.77-5.77,5.77h-46.65c-3.19-.07-5.72-2.71-5.65-5.9.07-3.09,2.56-5.58,5.65-5.65h7.85v-25.17c-24.34-7.29-40.52-30.29-39.15-55.66.06-3.19,2.7-5.72,5.89-5.66,3.1.06,5.6,2.56,5.66,5.66-1.47,59.39,83.66,62.46,86.37,3.29v-3.29c.05-3.19,2.67-5.73,5.86-5.68,3.12.05,5.64,2.57,5.68,5.68,1.35,25.38-14.85,48.38-39.2,55.66v25.17h7.68ZM60.78,118.87c2.23,2.33,2.15,6.02-.18,8.25-1.06,1.01-2.46,1.59-3.92,1.62-8.1-1.5-11.53-12.79-11.72-20.09-.36-7.17,6.51-25.53,15.76-18.42,2.28,2.23,2.32,5.88.1,8.16-.01.01-.03.03-.04.04-5.64,5.61-5.67,14.74-.06,20.38.02.02.04.04.06.06ZM47.67,85.33c-12.88,12.81-12.94,33.64-.13,46.52.04.04.09.09.13.13,2.25,2.26,2.24,5.91-.02,8.16-.01.01-.03.03-.04.04-11.07,8.87-22.57-23.18-21.19-31.52-1.41-8.33,10.22-40.4,21.19-31.53,2.28,2.23,2.32,5.88.1,8.16-.01.01-.03.03-.04.04ZM34.57,72.28c-19.95,20.15-19.95,52.6,0,72.75,2.22,2.29,2.17,5.95-.12,8.17-2.23,2.16-5.77,2.18-8.02.03-24.46-24.68-24.46-64.47,0-89.15,2.3-2.21,5.96-2.13,8.17.17,2.16,2.25,2.14,5.8-.03,8.03ZM97.44,134.29v-67.84c.03-14.15,11.49-25.61,25.64-25.64h12.93c14.15,0,25.63,11.48,25.64,25.64v67.84c-.03,14.13-11.5,25.58-25.64,25.58h-12.93c-14.13-.02-25.58-11.45-25.64-25.58ZM198.37,98.43c-2.26-2.2-2.32-5.82-.11-8.08.04-.04.08-.08.11-.11,9.26-7.12,16.12,11.26,15.76,18.42.36,7.23-6.49,25.46-15.76,18.42-2.26-2.2-2.32-5.82-.11-8.09.04-.04.08-.08.11-.11,5.58-5.67,5.58-14.77,0-20.44ZM211.41,131.98c12.88-12.81,12.94-33.64.13-46.52-.04-.04-.09-.09-.13-.13-2.25-2.26-2.24-5.91.02-8.16.01-.01.03-.03.04-.04,11.03-8.81,22.58,23.19,21.19,31.52,1.39,8.34-10.12,40.39-21.19,31.53-2.28-2.23-2.32-5.88-.1-8.16.01-.01.03-.03.04-.04h0Z"/>
  <path class="cls-1" d="M125.5,182.85v23.04h8.03v-23.04c-2.67.23-5.36.23-8.03,0Z"/>
  <path class="cls-1" d="M123.08,148.32h12.93c7.76,0,14.05-6.27,14.09-14.03v-67.84c-.01-7.78-6.31-14.08-14.09-14.09h-12.93c-7.78.01-14.08,6.31-14.09,14.09v67.84c.04,7.76,6.33,14.03,14.09,14.03Z"/>
</svg>