<?xml version="1.0" encoding="UTF-8"?>
<svg id="Layer_1" data-name="Layer 1" xmlns="http://www.w3.org/2000/svg" viewBox="0 0 256 256">
  <defs>
    <style>
      .cls-1 {
        fill: #b7def6;
      }

      .cls-2 {
        fill: #59a3d9;
      }
    </style>
  </defs>
  <path class="cls-2" d="M156.91,205.6c3.18,0,5.75,2.57,5.75,5.75,0,3.18-2.57,5.75-5.75,5.75h-46.45c-3.17-.07-5.69-2.7-5.62-5.88.07-3.08,2.55-5.55,5.62-5.62h7.82v-25.07c-24.23-7.25-40.34-30.16-38.98-55.42.06-3.18,2.69-5.7,5.86-5.64,3.09.06,5.57,2.55,5.64,5.64-1.47,59.14,83.3,62.19,86.01,3.28v-3.28c.05-3.18,2.66-5.71,5.84-5.66,3.11.05,5.61,2.55,5.66,5.66,1.34,25.27-14.79,48.17-39.04,55.42v25.07h7.65ZM101.84,134.32v-67.55c.03-14.09,11.44-25.5,25.53-25.53h12.88c14.09,0,25.52,11.43,25.53,25.53v67.55c-.03,14.07-11.45,25.47-25.53,25.47h-12.88c-14.07-.02-25.47-11.4-25.53-25.47Z"/>
  <path class="cls-1" d="M129.78,182.67v22.94h7.99v-22.94c-2.66.23-5.33.23-7.99,0Z"/>
  <path class="cls-1" d="M127.36,148.29h12.88c7.72,0,13.99-6.25,14.03-13.97v-67.55c-.01-7.74-6.28-14.02-14.03-14.03h-12.88c-7.74.01-14.02,6.28-14.03,14.03v67.55c.04,7.72,6.3,13.97,14.03,13.97Z"/>
</svg>